<?xml version="1.0" encoding="UTF-8" standalone="no"?>
<!DOCTYPE svg PUBLIC "-//W3C//DTD SVG 1.1//EN" "http://www.w3.org/Graphics/SVG/1.1/DTD/svg11.dtd">
<svg width="100%" height="100%" viewBox="0 0 670 281" version="1.1" xmlns="http://www.w3.org/2000/svg" xmlns:xlink="http://www.w3.org/1999/xlink" xml:space="preserve" xmlns:serif="http://www.serif.com/" style="fill-rule:evenodd;clip-rule:evenodd;stroke-linejoin:round;stroke-miterlimit:2;">
    <g transform="matrix(1,0,0,1,-1958.5,-3008.18)">
        <g transform="matrix(7.86628,0,0,7.5708,-8648.94,1670.07)">
            <g transform="matrix(0.42792,0,0,0.444621,1187.55,-6.53756)">
                <path d="M388.47,452.027C386.103,452.027 384.053,451.585 382.32,450.702C380.587,449.818 379.245,448.568 378.295,446.952C377.345,445.335 376.87,443.427 376.87,441.227L376.87,425.327C376.87,423.127 377.345,421.218 378.295,419.602C379.245,417.985 380.587,416.735 382.32,415.852C384.053,414.968 386.103,414.527 388.47,414.527C390.803,414.527 392.837,414.968 394.57,415.852C396.303,416.735 397.653,417.985 398.62,419.602C399.587,421.218 400.07,423.127 400.07,425.327L393.77,425.327C393.77,423.627 393.312,422.318 392.395,421.402C391.478,420.485 390.17,420.027 388.47,420.027C386.77,420.027 385.453,420.477 384.52,421.377C383.587,422.277 383.12,423.577 383.12,425.277L383.12,441.227C383.12,442.927 383.587,444.243 384.52,445.177C385.453,446.11 386.77,446.577 388.47,446.577C390.17,446.577 391.478,446.11 392.395,445.177C393.312,444.243 393.77,442.927 393.77,441.227L393.77,437.177L387.57,437.177L387.57,431.777L400.07,431.777L400.07,441.227C400.07,443.427 399.587,445.335 398.62,446.952C397.653,448.568 396.303,449.818 394.57,450.702C392.837,451.585 390.803,452.027 388.47,452.027Z" style="fill:currentColor;fill-rule:nonzero;"/>
                <path d="M413.32,452.027C410.987,452.027 408.953,451.577 407.22,450.677C405.487,449.777 404.145,448.502 403.195,446.852C402.245,445.202 401.77,443.26 401.77,441.027L401.77,434.527C401.77,432.293 402.245,430.352 403.195,428.702C404.145,427.052 405.487,425.777 407.22,424.877C408.953,423.977 410.987,423.527 413.32,423.527C415.62,423.527 417.628,423.977 419.345,424.877C421.062,425.777 422.395,427.035 423.345,428.652C424.295,430.268 424.77,432.16 424.77,434.327L424.77,439.327L407.77,439.327L407.77,441.227C407.77,443.093 408.253,444.502 409.22,445.452C410.187,446.402 411.553,446.877 413.32,446.877C414.62,446.877 415.728,446.652 416.645,446.202C417.562,445.752 418.103,445.093 418.27,444.227L424.47,444.227C424.037,446.593 422.803,448.485 420.77,449.902C418.737,451.318 416.253,452.027 413.32,452.027ZM407.77,434.327L407.77,435.277L418.77,435.227L418.77,434.277C418.77,432.377 418.303,430.91 417.37,429.877C416.437,428.843 415.087,428.327 413.32,428.327C411.487,428.327 410.103,428.852 409.17,429.902C408.237,430.952 407.77,432.427 407.77,434.327Z" style="fill:currentColor;fill-rule:nonzero;"/>
                <path d="M463.32,452.027C460.987,452.027 458.953,451.577 457.22,450.677C455.487,449.777 454.145,448.502 453.195,446.852C452.245,445.202 451.77,443.26 451.77,441.027L451.77,434.527C451.77,432.293 452.245,430.352 453.195,428.702C454.145,427.052 455.487,425.777 457.22,424.877C458.953,423.977 460.987,423.527 463.32,423.527C465.62,423.527 467.628,423.977 469.345,424.877C471.062,425.777 472.395,427.035 473.345,428.652C474.295,430.268 474.77,432.16 474.77,434.327L474.77,439.327L457.77,439.327L457.77,441.227C457.77,443.093 458.253,444.502 459.22,445.452C460.187,446.402 461.553,446.877 463.32,446.877C464.62,446.877 465.728,446.652 466.645,446.202C467.562,445.752 468.103,445.093 468.27,444.227L474.47,444.227C474.037,446.593 472.803,448.485 470.77,449.902C468.737,451.318 466.253,452.027 463.32,452.027ZM457.77,434.327L457.77,435.277L468.77,435.227L468.77,434.277C468.77,432.377 468.303,430.91 467.37,429.877C466.437,428.843 465.087,428.327 463.32,428.327C461.487,428.327 460.103,428.852 459.17,429.902C458.237,430.952 457.77,432.427 457.77,434.327Z" style="fill:currentColor;fill-rule:nonzero;"/>
                <path d="M478.12,451.527L478.12,424.027L484.22,424.027L484.22,429.377C484.553,427.577 485.378,426.152 486.695,425.102C488.012,424.052 489.72,423.527 491.82,423.527C494.62,423.527 496.803,424.427 498.37,426.227C499.937,428.027 500.72,430.543 500.72,433.777L500.72,436.377L494.47,436.377L494.47,434.077C494.47,432.41 494.037,431.135 493.17,430.252C492.303,429.368 491.07,428.927 489.47,428.927C487.803,428.927 486.537,429.427 485.67,430.427C484.803,431.427 484.37,432.843 484.37,434.677L484.37,451.527L478.12,451.527Z" style="fill:currentColor;fill-rule:nonzero;"/>
                <path d="M502.07,451.527L502.07,445.877L511.47,445.877L511.47,429.677L503.07,429.677L503.07,424.027L517.72,424.027L517.72,445.877L526.17,445.877L526.17,451.527L502.07,451.527ZM514.17,419.427C512.903,419.427 511.903,419.102 511.17,418.452C510.437,417.802 510.07,416.927 510.07,415.827C510.07,414.727 510.437,413.852 511.17,413.202C511.903,412.552 512.903,412.227 514.17,412.227C515.437,412.227 516.437,412.552 517.17,413.202C517.903,413.852 518.27,414.727 518.27,415.827C518.27,416.927 517.903,417.802 517.17,418.452C516.437,419.102 515.437,419.427 514.17,419.427Z" style="fill:currentColor;fill-rule:nonzero;"/>
                <path d="M538.72,452.027C536.353,452.027 534.295,451.585 532.545,450.702C530.795,449.818 529.437,448.568 528.47,446.952C527.503,445.335 527.02,443.427 527.02,441.227L527.02,434.327C527.02,432.127 527.503,430.218 528.47,428.602C529.437,426.985 530.795,425.735 532.545,424.852C534.295,423.968 536.353,423.527 538.72,423.527C542.153,423.527 544.912,424.418 546.995,426.202C549.078,427.985 550.17,430.41 550.27,433.477L544.12,433.477C544.02,432.043 543.478,430.935 542.495,430.152C541.512,429.368 540.253,428.977 538.72,428.977C537.02,428.977 535.687,429.435 534.72,430.352C533.753,431.268 533.27,432.577 533.27,434.277L533.27,441.227C533.27,442.927 533.753,444.243 534.72,445.177C535.687,446.11 537.02,446.577 538.72,446.577C540.287,446.577 541.553,446.185 542.52,445.402C543.487,444.618 544.02,443.51 544.12,442.077L550.27,442.077C550.17,445.143 549.078,447.568 546.995,449.352C544.912,451.135 542.153,452.027 538.72,452.027Z" style="fill:currentColor;fill-rule:nonzero;"/>
                <path d="M562.12,451.977C558.853,451.977 556.27,451.235 554.37,449.752C552.47,448.268 551.52,446.26 551.52,443.727L557.67,443.727C557.67,444.793 558.062,445.61 558.845,446.177C559.628,446.743 560.72,447.027 562.12,447.027L564.32,447.027C565.82,447.027 566.978,446.743 567.795,446.177C568.612,445.61 569.02,444.793 569.02,443.727C569.02,442.727 568.737,441.985 568.17,441.502C567.603,441.018 566.737,440.693 565.57,440.527L558.72,439.627C556.52,439.327 554.828,438.477 553.645,437.077C552.462,435.677 551.87,433.86 551.87,431.627C551.87,429.027 552.737,427.035 554.47,425.652C556.203,424.268 558.703,423.577 561.97,423.577L564.27,423.577C567.337,423.577 569.803,424.277 571.67,425.677C573.537,427.077 574.503,428.943 574.57,431.277L568.37,431.277C568.337,430.41 567.953,429.718 567.22,429.202C566.487,428.685 565.503,428.427 564.27,428.427L561.97,428.427C560.637,428.427 559.62,428.702 558.92,429.252C558.22,429.802 557.87,430.543 557.87,431.477C557.87,432.31 558.128,432.927 558.645,433.327C559.162,433.727 559.92,433.977 560.92,434.077L567.37,434.977C569.903,435.277 571.812,436.168 573.095,437.652C574.378,439.135 575.02,441.127 575.02,443.627C575.02,446.293 574.112,448.352 572.295,449.802C570.478,451.252 567.82,451.977 564.32,451.977L562.12,451.977Z" style="fill:currentColor;fill-rule:nonzero;"/>
                <g transform="matrix(1,0,0,1,-0.0706147,-6.58538)">
                    <path d="M388.42,502.027C385.953,502.027 383.795,501.593 381.945,500.727C380.095,499.86 378.662,498.618 377.645,497.002C376.628,495.385 376.12,493.46 376.12,491.227L382.27,491.227C382.27,492.86 382.828,494.16 383.945,495.127C385.062,496.093 386.553,496.577 388.42,496.577C390.22,496.577 391.645,496.102 392.695,495.152C393.745,494.202 394.27,492.927 394.27,491.327C394.27,490.127 393.928,489.068 393.245,488.152C392.562,487.235 391.587,486.61 390.32,486.277L385.42,485.027C382.787,484.36 380.703,483.11 379.17,481.277C377.637,479.443 376.87,477.26 376.87,474.727C376.87,471.627 377.887,469.152 379.92,467.302C381.953,465.452 384.67,464.527 388.07,464.527C390.37,464.527 392.378,464.943 394.095,465.777C395.812,466.61 397.137,467.785 398.07,469.302C399.003,470.818 399.47,472.593 399.47,474.627L393.37,474.627C393.37,473.227 392.887,472.093 391.92,471.227C390.953,470.36 389.67,469.927 388.07,469.927C386.503,469.927 385.262,470.352 384.345,471.202C383.428,472.052 382.97,473.16 382.97,474.527C382.97,475.66 383.295,476.593 383.945,477.327C384.595,478.06 385.503,478.593 386.67,478.927L391.72,480.177C394.42,480.843 396.545,482.177 398.095,484.177C399.645,486.177 400.42,488.56 400.42,491.327C400.42,493.493 399.928,495.377 398.945,496.977C397.962,498.577 396.57,499.818 394.77,500.702C392.97,501.585 390.853,502.027 388.42,502.027Z" style="fill:currentColor;fill-rule:nonzero;"/>
                </g>
                <g transform="matrix(1,0,0,1,-0.0706147,-6.58538)">
                    <path d="M416.02,501.527C413.453,501.527 411.412,500.785 409.895,499.302C408.378,497.818 407.62,495.81 407.62,493.277L407.62,479.677L400.02,479.677L400.02,474.027L407.62,474.027L407.62,466.277L413.92,466.277L413.92,474.027L424.87,474.027L424.87,479.677L413.92,479.677L413.92,493.127C413.92,493.927 414.145,494.585 414.595,495.102C415.045,495.618 415.67,495.877 416.47,495.877L424.62,495.877L424.62,501.527L416.02,501.527Z" style="fill:currentColor;fill-rule:nonzero;"/>
                </g>
                <g transform="matrix(0.297076,0,0,0.272155,-56.197,-365.966)">
                    <path d="M1702.31,2934.39L1702.31,3128.45C1702.31,3139.78 1698.89,3148.73 1692.05,3155.29C1685.2,3161.86 1676,3165.14 1664.44,3165.14C1652.66,3165.14 1643.4,3161.86 1636.67,3155.29C1629.94,3148.73 1626.57,3139.78 1626.57,3128.45L1626.91,2989L1626.91,2902.58L1647.44,2902.58L1647.44,2919.92C1648.57,2914.08 1651.32,2909.45 1655.69,2906.03C1660.07,2902.61 1665.62,2900.9 1672.35,2900.9C1681.44,2900.9 1688.71,2903.93 1694.15,2909.99C1699.59,2916.05 1702.31,2924.18 1702.31,2934.39ZM1681.27,3128.28L1681.27,2936.91C1681.27,2931.19 1679.79,2926.79 1676.81,2923.7C1673.84,2920.62 1669.83,2919.08 1664.78,2919.08C1659.51,2919.08 1655.38,2920.65 1652.41,2923.79C1649.44,2926.93 1647.95,2931.42 1647.95,2937.25L1647.95,2995.15L1647.61,3128.28C1647.61,3134.12 1649.07,3138.66 1651.99,3141.91C1654.91,3145.17 1659.06,3146.79 1664.44,3146.79C1669.72,3146.79 1673.84,3145.17 1676.81,3141.91C1679.79,3138.66 1681.27,3134.12 1681.27,3128.28Z" style="fill:currentColor;fill-rule:nonzero;"/>
                </g>
                <g transform="matrix(1,0,0,1,-0.0706147,-6.58538)">
                    <path d="M460.77,502.027C458.103,502.027 455.945,501.077 454.295,499.177C452.645,497.277 451.82,494.727 451.82,491.527L451.82,484.077C451.82,480.843 452.637,478.277 454.27,476.377C455.903,474.477 458.07,473.527 460.77,473.527C462.67,473.527 464.278,474.01 465.595,474.977C466.912,475.943 467.837,477.293 468.37,479.027L468.17,472.727L468.17,465.027L474.42,465.027L474.42,501.527L468.32,501.527L468.32,496.527C467.82,498.26 466.92,499.61 465.62,500.577C464.32,501.543 462.703,502.027 460.77,502.027ZM463.12,496.627C464.72,496.627 465.962,496.143 466.845,495.177C467.728,494.21 468.17,492.843 468.17,491.077L468.17,484.477C468.17,482.71 467.728,481.343 466.845,480.377C465.962,479.41 464.72,478.927 463.12,478.927C461.52,478.927 460.278,479.36 459.395,480.227C458.512,481.093 458.07,482.427 458.07,484.227L458.07,491.327C458.07,493.127 458.512,494.46 459.395,495.327C460.278,496.193 461.52,496.627 463.12,496.627Z" style="fill:currentColor;fill-rule:nonzero;"/>
                </g>
                <g transform="matrix(1,0,0,1,-0.0706147,-6.58538)">
                    <path d="M477.07,501.527L477.07,495.877L486.47,495.877L486.47,479.677L478.07,479.677L478.07,474.027L492.72,474.027L492.72,495.877L501.17,495.877L501.17,501.527L477.07,501.527ZM489.17,469.427C487.903,469.427 486.903,469.102 486.17,468.452C485.437,467.802 485.07,466.927 485.07,465.827C485.07,464.727 485.437,463.852 486.17,463.202C486.903,462.552 487.903,462.227 489.17,462.227C490.437,462.227 491.437,462.552 492.17,463.202C492.903,463.852 493.27,464.727 493.27,465.827C493.27,466.927 492.903,467.802 492.17,468.452C491.437,469.102 490.437,469.427 489.17,469.427Z" style="fill:currentColor;fill-rule:nonzero;"/>
                </g>
                <g transform="matrix(1,0,0,1,-0.0706147,-6.58538)">
                    <path d="M513.27,501.977C509.737,501.977 506.937,500.985 504.87,499.002C502.803,497.018 501.77,494.343 501.77,490.977L501.77,484.577C501.77,481.177 502.803,478.493 504.87,476.527C506.937,474.56 509.737,473.577 513.27,473.577C516.803,473.577 519.603,474.56 521.67,476.527C523.737,478.493 524.77,481.177 524.77,484.577L524.77,490.977C524.77,494.343 523.737,497.018 521.67,499.002C519.603,500.985 516.803,501.977 513.27,501.977ZM513.27,496.527C514.937,496.527 516.228,496.068 517.145,495.152C518.062,494.235 518.52,492.91 518.52,491.177L518.52,484.377C518.52,482.643 518.062,481.318 517.145,480.402C516.228,479.485 514.937,479.027 513.27,479.027C511.603,479.027 510.312,479.485 509.395,480.402C508.478,481.318 508.02,482.643 508.02,484.377L508.02,491.177C508.02,492.91 508.478,494.235 509.395,495.152C510.312,496.068 511.603,496.527 513.27,496.527Z" style="fill:currentColor;fill-rule:nonzero;"/>
                </g>
            </g>
        </g>
    </g>
</svg>
