<?xml version="1.0" encoding="UTF-8" standalone="no"?>
<!DOCTYPE svg PUBLIC "-//W3C//DTD SVG 1.1//EN" "http://www.w3.org/Graphics/SVG/1.1/DTD/svg11.dtd">
<svg width="100%" height="100%" viewBox="0 0 208 200" version="1.1" xmlns="http://www.w3.org/2000/svg" xmlns:xlink="http://www.w3.org/1999/xlink" xml:space="preserve" xmlns:serif="http://www.serif.com/" style="fill-rule:evenodd;clip-rule:evenodd;stroke-linejoin:round;stroke-miterlimit:2;">
    <g transform="matrix(1,0,0,1,-46.4324,-392.554)">
        <g transform="matrix(1.52784,0,0,1.34967,-1825.52,-52.7445)">
            <g transform="matrix(0.455843,0,0,0.516017,1626.18,195.765)">
                <g transform="matrix(1,0,0,1,-1026.17,-116.414)">
                    <path d="M220.767,376.415L221.508,376.455C225.961,376.715 248.63,386.841 254.422,389.054C262.242,392.042 300.502,405.054 304.17,409.178C304.422,410.073 304.594,410.689 304.331,411.624C304.03,412.696 303.231,413.811 302.185,414.271C295.684,417.131 238.072,390.993 228.827,386.578C233.872,402.076 240.605,421.124 242.978,437.107C278.726,435.8 314.504,435.552 350.267,436.362C342.297,431.692 314.865,422.701 313.396,414.67C313.903,413.082 313.427,413.672 314.863,412.838C316.715,412.686 318.131,412.958 319.88,413.605C326.519,416.063 369.023,432.98 370.635,436.872C372.16,440.557 375.883,442.757 378.679,445.585C385.307,452.289 391.566,460.394 398.105,466.723C400.258,468.807 404.485,470.434 405.467,473.381C405.888,474.644 405.507,475.218 404.979,476.315C401.108,479.416 392.026,478.334 386.996,478.33C379.654,478.386 372.313,478.548 364.976,478.815C365.209,483.827 365.671,488.213 365.177,493.224C376.24,501.151 383.922,513.752 373.639,526.743C365.453,537.085 346.26,528.306 347.872,515.441C348.176,513.016 349.146,507.805 352.416,508.098C354.746,510.692 354.146,521.196 360.33,521.906C367.679,522.749 371.904,519.117 369.097,511.73C366.033,503.669 362.238,502.324 357.431,496.44C356.177,494.905 359.468,481.52 357.933,479.238L356.125,479.12C339.127,479.354 321.562,479.802 304.633,479.29C282.741,478.627 261.339,478.024 239.43,478.876C239.457,487.722 241.57,497.652 241.296,506.327C240.626,527.505 242.174,548.532 242.438,569.603C242.55,590.877 242.406,612.151 242.005,633.421C244.85,633.833 247.648,634.238 250.183,635.7C254.726,638.321 256.426,642.975 257.612,647.811C258.526,651.537 259.364,656.629 257.129,660.013C255.905,661.866 253.352,662.137 251.288,662.494C245.14,663.556 189.428,664.603 186.231,661.688C183.827,659.496 183.559,654.575 183.381,651.498C183.143,647.391 183.795,642.946 186.723,639.841C190.525,635.808 195.695,635.664 200.841,635.546C195.628,620.967 198.094,601.35 196.841,585.679C194.96,562.149 196.876,538.139 196.789,514.561C196.745,502.617 196.406,490.931 196.631,478.95C188.961,478.28 181.795,477.245 174.003,476.895C173.529,481.678 173.514,483.573 169.614,486.378C167.097,489.212 148.289,487.928 147.756,484.095C146.164,472.646 146.656,453.85 146.634,442.038C146.616,432.012 151.563,428.998 159.91,429.369C169.612,429.801 171.276,426.707 173.15,438.534L198.234,437.908C198.999,434.471 201.728,427.212 202.78,423.825C205.252,415.861 216.08,380.381 220.767,376.415ZM230.647,545.401C224.171,548.871 217.124,552.822 210.5,555.834C213.825,557.8 216.649,559.299 220.103,561.041C224.566,563.437 227.654,565.306 231.89,568.093C231.869,565.142 232.038,547.237 231.074,545.482L230.647,545.401ZM231.927,589.043C226.624,591.529 217.144,596.301 211.863,598.229C214.134,599.423 216.904,600.979 219.204,602.001C223.701,604.018 228.275,605.977 232.593,608.344C232.589,605.683 232.899,590.221 231.927,589.043ZM232.628,626.427C226.901,629.331 218.302,631.932 214.407,634.127L214.422,634.5L214.935,634.552C221.218,634.28 227.255,634.01 233.548,634.011C233.562,632.101 233.817,628.069 233.142,626.511L232.628,626.427ZM205.51,513.766C205.432,525.739 205.258,538.5 205.588,550.451C210.904,545.888 215.554,543.275 221.562,539.789C223.189,538.941 230.253,535.654 230.955,534.761C231.025,532.99 231.202,531.87 230.665,530.169C223.9,525.092 212.905,518.539 205.51,513.766ZM235.143,448.87C229.301,455.916 222.24,462.593 215.714,469.066L225.125,469.014L242.872,468.983C241.354,465.848 235.847,449.743 235.143,448.87ZM211.89,447.786C209.25,447.883 206.542,448.016 203.907,448.039C205.516,451.659 209.795,461.693 211.748,464.287C213.194,463.166 213.568,462.47 214.612,461.003C217.972,456.486 221.851,451.425 225.771,447.372C221.415,447.469 216.168,447.449 211.89,447.786ZM221.086,394.825C216.128,410.957 212.987,422.303 205.424,437.919L216.723,437.874L232.655,438.002C229.297,423.183 225.09,409.464 221.086,394.825ZM159.683,438.612C157.121,440.159 156.747,441.002 157.274,444.348C158.183,450.113 155.88,473.686 157.421,477.186C159.343,477.677 159.523,477.684 161.519,477.774L163.321,477.277C164.719,471.89 161.768,453.219 162.368,446.604C162.58,444.265 162.292,439.415 159.683,438.612ZM197.739,451.871C192.758,458.353 188.388,463.372 182.739,469.351L193.125,469.639C197.799,469.712 202.474,469.648 207.143,469.447C200.248,459.979 201.976,459.723 197.739,451.871ZM173.198,446.09C173.683,454.009 173.782,463.056 172.831,470.913C175.002,467.386 177.607,463.124 180.357,460.01C183.971,455.581 187.269,451.545 191.321,447.464C185.75,447.243 178.777,446.786 173.198,446.09ZM273.723,447.227L262.737,447.534C264.996,452.198 270.881,465.058 273.742,468.358L274.572,468.483L275.225,467.352C277.438,461.132 283.189,451.86 287.618,446.902L273.723,447.227ZM321.711,445.161C326.577,453.493 329.259,458.603 332.962,467.552C336.282,463.066 339.027,459.561 343.1,455.696C347.108,451.82 350.591,449.036 354.984,445.639C343.442,445.202 333.308,444.944 321.711,445.161ZM242.377,447.376C245.736,454.652 249.547,461.496 252.92,468.683L266.112,468.943C260.338,463.093 255.273,454.672 251.114,447.52L242.377,447.376ZM365.519,446.485C359.215,453.897 348.952,461.768 341.804,468.821C349.528,468.812 358.55,468.511 366.125,468.745C373.792,469.075 382.69,469.753 390.216,469.652C384.605,463.99 371.67,450.141 365.519,446.485ZM292.763,452.848C289.491,459.039 286.97,464.063 281.816,468.986L290.125,469.046L300.102,469.061C299.123,466.916 293.45,453.783 292.763,452.848ZM299.739,446.267C301.851,451.825 306.763,464.16 309.085,469.236C313.455,469.247 318.068,469.341 322.411,469.095C322.422,468.554 315.725,449.285 314.851,445.864C309.886,445.988 304.679,446.035 299.739,446.267ZM230.303,495.52C221.044,499.116 215.913,503.587 207.65,507.785C210.378,508.559 213.171,509.312 215.866,510.18C221.85,512.379 225.381,513.927 230.905,517.131C231.416,512.372 232.13,500.36 230.768,495.937L230.303,495.52ZM206.415,562.248C206.283,572.942 206.294,583.636 206.448,594.329C211.939,589.914 216.592,587.406 222.737,583.933L223.232,583.678C225.764,582.402 230.18,581.245 231.619,580.009C231.96,577.829 231.936,577.907 231.544,575.716C228.492,573.651 222.818,571.338 219.269,569.613C214.253,567.177 211.075,565.164 206.415,562.248ZM206.114,603.621C206.022,612.237 206.058,621.258 205.76,629.838C212.113,626.622 218.657,623.257 225.394,620.932C228.103,619.969 230.259,619.391 232.608,617.73L233.019,616.774C232.066,615.353 226.9,613.954 224.927,613.039C218.554,610.082 212.368,606.819 206.114,603.621ZM202.84,478.49C203.374,484.656 203.949,490.819 204.564,496.977C210.814,495.045 217.731,491.288 223.873,488.732C226.163,487.888 228.637,486.916 230.951,486.198L230.977,478.977C221.435,478.984 212.385,479.058 202.84,478.49ZM240.158,645.711C225.916,646.513 211.785,646.514 197.55,647.024C196.46,647.063 195.581,647.769 194.872,648.511C194.361,650.122 193.947,650.423 194.33,651.762C196.669,652.333 200.903,651.995 203.501,651.905C218.096,652.073 232.915,652.68 247.555,653.022C247.408,650.847 247.487,648.401 246.492,646.563C244.285,644.911 243.176,645.438 240.158,645.711Z" style="fill:rgb(0,225,92);"/>
                </g>
                <g transform="matrix(1,0,0,1,-1026.17,-116.414)">
                    <path d="M328.552,570.585C330.918,570.323 332.831,570.145 334.968,571.169C340.209,577.385 324.887,582.85 320.746,585.713C297.92,601.497 294.733,623.987 294.221,649.739C313.87,648.483 332.468,648.02 352.148,649.096C359.139,649.478 366.812,648.509 373.786,648.883C390.865,649.8 407.535,649.392 424.612,648.905C426.429,628.244 417.575,602.252 401.131,589.165C397.832,585.797 382.866,579.272 389.596,572.776C395.385,567.189 411.941,583.663 415.165,586.899C432.875,606.317 434.906,623.609 434.45,648.694C438.036,649.059 443.31,650.029 443.933,653.736C445.442,662.712 417.895,660.476 413.719,660.508L369.751,660.429C349.28,660.519 329.069,660.445 308.384,660.542C302.238,660.57 274.42,663.957 272.897,655.319C272.135,650.997 278.837,649.111 282.841,648.748C281.061,625.621 286.458,600.155 304.249,584.388C312.036,577.487 318.363,573.011 328.552,570.585Z" style="fill:rgb(0,225,92);fill-rule:nonzero;"/>
                </g>
                <g transform="matrix(1,0,0,1,-1026.17,-116.414)">
                    <path d="M371.43,555.537C372.239,555.676 374.191,555.973 374.697,556.55C379.98,562.576 378.528,577.959 378.918,585.792C379.265,592.764 379.53,600.05 375.061,604.646C372.944,604.484 369.255,604.397 368.591,601.573C366.267,591.688 367.059,581.155 366.925,571.003C366.857,565.84 365.905,557.561 371.43,555.537Z" style="fill:rgb(0,225,92);fill-rule:nonzero;"/>
                </g>
                <g transform="matrix(1,0,0,1,-1026.17,-116.414)">
                    <path d="M347.517,554.455C348.178,554.455 348.849,554.439 349.507,554.528C351.237,554.764 352.619,555.592 353.583,557.058C354.649,558.679 355.514,600.024 354.581,603.392C354.212,604.725 352.569,605.53 351.469,606.244C350.266,606.244 346.223,606 345.888,604.72C343.615,596.027 341.857,559.845 347.517,554.455Z" style="fill:rgb(0,225,92);fill-rule:nonzero;"/>
                </g>
            </g>
        </g>
    </g>
</svg>
