<?xml version="1.0" encoding="UTF-8" standalone="no"?>
<!DOCTYPE svg PUBLIC "-//W3C//DTD SVG 1.1//EN" "http://www.w3.org/Graphics/SVG/1.1/DTD/svg11.dtd">
<svg width="100%" height="100%" viewBox="0 0 290 200" version="1.1" xmlns="http://www.w3.org/2000/svg" xmlns:xlink="http://www.w3.org/1999/xlink" xml:space="preserve" xmlns:serif="http://www.serif.com/" style="fill-rule:evenodd;clip-rule:evenodd;stroke-linejoin:round;stroke-miterlimit:2;">
    <g transform="matrix(1,0,0,1,-5.33939,-722.883)">
        <g transform="matrix(1.52784,0,0,1.34967,-1825.52,277.584)">
            <g transform="matrix(0.647105,0,0,0.732527,1758.99,-106.133)">
                <g transform="matrix(1,0,0,1,-1026.17,-116.414)">
                    <path d="M333.63,883.412C335.261,880.586 338.951,873.225 342.197,872.718C351.315,871.292 362.952,873.271 372.119,873.236C379.048,873.209 386.034,872.742 392.833,872.575C403.863,872.321 414.897,872.314 425.927,872.553C429.201,872.608 447.66,871.623 449.15,872.908C456.092,878.896 450.577,895.198 445.066,901.117C430.398,916.872 415.184,913.66 395.993,913.33C385.86,913.197 375.724,913.399 365.604,913.936C343.102,914.323 321.019,912.554 298.576,912.412C271.753,912.76 246.38,912.668 219.434,913.042C199.541,913.319 174.605,919.206 163.654,895.716C161.906,891.967 158.589,878.313 160.19,875.059C162.321,870.729 181.504,873.093 185.521,873.143L222.503,873.439C229.191,873.485 236.294,874.084 242.878,873.883C247.395,873.744 253.698,872.788 258.295,872.189C260.855,871.849 263.923,871.945 266.544,871.936C270.583,874.958 273.829,879.414 276.637,883.554C294.299,884.279 315.624,883.492 333.63,883.412ZM195.363,883.732C187.418,883.967 179.469,884.033 171.521,883.927C173.141,890.139 175.249,894.63 181.062,897.974C185.472,900.511 190.316,901.844 195.384,902.069C204.803,902.488 214.444,901.248 223.868,900.909C231.271,900.642 238.668,901.07 246.07,900.974C253.99,900.872 261.902,900.246 269.821,900.206C294.453,900.079 319.089,901.434 343.71,901.892C354.962,902.101 366.228,901.179 377.495,901.318C388.125,901.45 415.981,903.401 424.658,900.876C425.418,900.655 426.159,900.406 426.896,900.12C433.382,896.823 437,893.672 439.435,886.498C439.714,885.663 439.96,884.818 440.173,883.964C409.934,885.003 377.697,883.671 347.225,884.522C344.254,889.645 343.141,891.461 338.807,895.414L294.508,895.507C287.438,895.522 279.295,895.793 272.319,895.112C268.399,894.73 263.72,887.067 261.892,883.607C257.119,884.384 250.841,885.547 246.13,885.693C230.056,886.193 211.201,883.207 195.363,883.732Z" style="fill:rgb(0,225,92);"/>
                </g>
                <g transform="matrix(1,0,0,1,-1026.17,-116.414)">
                    <path d="M309.267,736.7C320.732,735.588 319.908,741.89 319.826,751.447L326.949,755.881C330.319,752.149 337.932,744.398 343.442,748.924C347.174,751.991 353.858,758.777 354.501,763.688C353.579,767.262 349.657,770.714 346.997,773.492C348.227,776.852 349.148,779.942 350.166,783.374C359.241,783.43 366.425,782.441 365.932,794.115C365.336,808.208 364.389,808.521 351.654,810.369C349.829,814.162 348.98,816.795 347.651,820.831C349.65,822.713 354.723,827.135 355.439,829.464C356.748,833.723 346.628,844.148 342.987,845.016C338.723,846.033 333.072,841.226 329.813,838.706C326.493,840.193 323.076,841.916 319.788,843.511C315.931,858.109 319.405,859.216 302.007,858.887C291.482,857.985 293.679,850.982 293.117,842.058C289.675,840.927 288.264,840.53 285.098,838.748C282.392,841.411 276.374,847.495 273.028,847.577C267.387,847.717 257.728,837.806 257.746,832.204C257.76,827.782 262.901,823.384 265.542,820.703C264.762,817.795 263.666,814.58 262.742,811.684C258.889,811.465 247.818,810.312 247.284,806.133C244.791,786.638 246.575,786.391 262.525,784.359L265.7,774.999C264.838,774.106 263.985,773.205 263.141,772.294C253.192,761.521 262.132,756.535 270.392,749.001C273.943,750.914 279.269,754.615 283.222,756.905C286.615,755.146 288.984,753.977 292.517,752.566C295.007,738.816 295.064,737.855 309.267,736.7ZM306.156,766.597C299.871,768.138 293.477,770.215 288.508,774.495C267.017,793.002 278.142,826.931 307.458,826.997C310.468,826.699 313.253,826.457 316.146,825.56C339.305,818.384 340.373,785.113 322.668,771.631C317.526,767.717 312.559,766.054 306.156,766.597Z" style="fill:rgb(0,225,92);"/>
                </g>
                <g transform="matrix(1,0,0,1,-1026.17,-116.414)">
                    <path d="M396.287,712.208C405.819,710.856 421.036,711.782 427.118,720.197C433.657,729.245 430.197,738.847 429.934,749.001L429.088,794.502C428.898,804.62 430.284,815.824 430.276,825.467C430.268,834.564 429.471,854.08 427.997,862.649C426.447,864.549 424.171,867.025 421.49,866.88C420.918,867.078 419.093,865.843 418.974,865.44C416.09,855.677 417.968,845.211 418.313,835.221C418.409,832.437 418.535,829.58 418.507,826.776C418.389,815.046 416.939,803.831 417.908,792.081C418.88,773.215 417.497,753.511 419.334,734.534C419.779,729.935 418.032,723.972 412.406,723.642C404.436,723.173 396.425,724.131 388.344,724.372C370.391,724.853 352.426,724.596 334.494,723.6C328.949,723.277 306.556,723.772 308.601,715.151C309.988,713.686 311.999,712.97 314.003,712.901C341.34,711.959 368.99,714.329 396.287,712.208Z" style="fill:rgb(0,225,92);fill-rule:nonzero;"/>
                </g>
                <g transform="matrix(1,0,0,1,-1026.17,-116.414)">
                    <path d="M202.084,713.174L262.559,712.782C278.003,712.628 274.87,724.5 263.918,724.374C245.05,724.158 225.306,726.905 206.528,724.356C201.709,723.701 199.257,724.956 195.896,727.904L195.402,728.344C191.582,738.786 194.532,760.488 194.435,772.016C194.346,782.582 193.977,792.802 193.524,803.375C193.227,821.221 193.872,839.292 194.168,857.146C194.313,865.913 183.108,868.613 182.982,862.53C182.637,845.925 181.822,829.097 181.889,812.486C181.946,798.229 184.225,783.782 183.228,769.472C182.566,755.922 181.516,741.832 183.054,728.315C184.104,719.09 193.843,714.159 202.084,713.174Z" style="fill:rgb(0,225,92);fill-rule:nonzero;"/>
                </g>
            </g>
        </g>
    </g>
</svg>
