<?xml version="1.0" encoding="UTF-8" standalone="no"?>
<!DOCTYPE svg PUBLIC "-//W3C//DTD SVG 1.1//EN" "http://www.w3.org/Graphics/SVG/1.1/DTD/svg11.dtd">
<svg width="100%" height="100%" viewBox="0 0 227 200" version="1.1" xmlns="http://www.w3.org/2000/svg" xmlns:xlink="http://www.w3.org/1999/xlink" xml:space="preserve" xmlns:serif="http://www.serif.com/" style="fill-rule:evenodd;clip-rule:evenodd;stroke-linejoin:round;stroke-miterlimit:2;">
    <g transform="matrix(1,0,0,1,-375.747,-386.444)">
        <g transform="matrix(1.52784,0,0,1.34967,-1486.29,-54.02)">
            <g transform="matrix(0.564205,0,0,0.638683,1463.91,128.275)">
                <g transform="matrix(1,0,0,1,-1026.17,-116.414)">
                    <path d="M815.838,494.659C855.215,493.031 871.887,548.446 832.216,569.235C831.998,575.798 832.155,582.847 832.384,589.405C836.744,589.493 842.797,590.549 839.851,597.021C838.433,600.136 835.061,600.735 831.948,601.666L832.107,608.077C832.912,608.178 836.764,608.635 837.098,608.842C846.98,614.967 836.919,619.568 831.831,620.822C832.204,632.728 835.592,622.829 840.402,630.19C840.878,635.055 836.382,637.182 832.371,638.227L832.084,639.057C831.034,642.168 831.003,642.604 829.1,645.464C816.144,661.48 815.672,663.253 800.687,648.273C799.253,638.079 800.57,623.042 800.368,612.359C800.086,597.467 800.228,583.19 800.56,568.3C789.63,564.021 779.869,551.7 778.327,539.931C776.966,529.791 779.757,519.531 786.068,511.478C793.065,502.56 804.554,496.058 815.838,494.659ZM815.057,505.601C798.659,509.778 786.017,521.671 790.834,540.261C793.881,552.024 801.747,554.922 810.362,561.73C811.245,566.876 811.408,576.634 811.627,582.151C812.117,592.77 812.407,603.397 812.5,614.027C812.532,624.197 812.172,635.409 812.847,645.437L816.515,641.086L821.075,636.922C821.673,617.989 820.719,599.243 821.286,580.336C821.401,576.475 819.658,563.875 822.603,561.889C832.316,555.339 842.362,549.873 843.48,536.737C844.622,518.33 834.73,504.238 815.057,505.601Z" style="fill:rgb(0,225,92);"/>
                </g>
                <g transform="matrix(1,0,0,1,-1026.17,-116.414)">
                    <path d="M813.411,521.111C823.555,519.94 828.816,525.235 824.247,535.995C823.298,538.23 820.823,539.779 818.547,540.661C805.089,539.799 801.181,526.461 813.411,521.111Z" style="fill:rgb(0,225,92);fill-rule:nonzero;"/>
                </g>
                <g transform="matrix(1,0,0,1,-1026.17,-116.414)">
                    <path d="M749.637,506.007C750.867,506.175 754.465,506.789 754.482,508.504C754.893,550.136 755.94,591.972 756.405,633.666C756.448,637.547 755.744,641.188 754.417,644.816C758.998,644.5 767.871,643.316 770.937,646.517C775.884,652.115 763.824,655.419 760.018,655.828C749.392,656.971 738.485,656.279 727.799,656.598C719.855,656.836 711.914,658.277 704.019,657.421C700.418,657.031 699.078,652.955 698.926,649.858C698.705,638.089 701.39,622.876 685.213,621.732C667.537,620.483 670.048,636.521 670.24,648.637C670.293,651.989 669.483,654.091 667.071,656.351C659.405,658.8 627.513,654.902 617.351,655.671C614.028,655.226 602.096,657.718 600.089,655.896C588.216,645.116 612.142,646.049 615.18,645.996C612.93,618.02 615.383,585.373 614.864,556.723C614.506,547.643 614.385,510.31 621.125,506.02C623.432,506.114 625.54,508.703 625.657,510.838C626.209,520.968 626.166,531.174 626.255,541.322C626.484,555.397 626.501,569.473 626.305,583.548C625.836,606.943 624.6,621.177 627.043,645.408C637.415,645.1 647.797,645.316 658.147,646.057C658.325,636.817 657.993,626.534 664.371,619.201C674.594,607.498 692.357,607.144 703.547,617.585C711.701,625.194 711.18,635.914 711.602,646.219C723.626,645.859 735.648,645.409 747.666,644.867C746.222,636.798 746.724,626.267 746.118,617.844C745.931,611.296 744.288,601.318 744.283,595.138C744.275,582.887 741.432,512.292 749.637,506.007Z" style="fill:rgb(0,225,92);fill-rule:nonzero;"/>
                </g>
                <g transform="matrix(1,0,0,1,-1026.17,-116.414)">
                    <path d="M625.78,426.673C634.284,426.306 647.454,426.695 655.747,427.947C662.151,428.915 663.684,435.289 655.158,438.496C655.934,444.262 656.547,448.548 656.692,454.376C662.41,450.017 682.543,435.151 688.51,431.797C693.348,434.385 708.799,448.298 716.068,453.958C736.21,469.693 759.266,483.22 777.391,501.206C780.277,504.07 775.067,511.612 769.448,508.156C762.168,503.679 755.855,498.108 749.168,492.806C742.341,487.436 735.39,482.226 728.322,477.179C722.526,473.056 716.666,469.525 711.027,465.032C702.987,458.626 695.734,451.757 687.529,445.542L628.33,490.613C620.186,496.796 612.569,503.774 604.037,509.447C600.882,511.544 595.964,515.098 592.453,512.426C588.84,506.072 598.043,501.799 602.415,498.46C608.905,493.556 615.266,488.483 621.492,483.247C622.298,466.071 622.422,456.711 621.682,439.786C609.445,435.104 614.933,427.854 625.78,426.673Z" style="fill:rgb(0,225,92);fill-rule:nonzero;"/>
                </g>
                <g transform="matrix(1,0,0,1,-1026.17,-116.414)">
                    <path d="M645.309,439.264L645.885,439.234C646.495,440.104 645.355,455.848 646.704,461.195C643.545,464.243 639.527,467.301 636.006,470.654L635.279,470.804C634.836,469.559 634.08,443.431 633.962,440.177C637.755,439.648 641.49,439.484 645.309,439.264Z" style="fill:rgb(0,225,92);fill-rule:nonzero;"/>
                </g>
                <g transform="matrix(1,0,0,1,-1026.17,-116.414)">
                    <path d="M720.367,570.069C727.783,569.347 728.506,575.123 728.236,581.302C728.07,585.073 727.103,587.315 724.154,589.701C713.688,587.983 714.54,573.859 720.367,570.069Z" style="fill:rgb(0,225,92);fill-rule:nonzero;"/>
                </g>
                <g transform="matrix(1,0,0,1,-1026.17,-116.414)">
                    <path d="M680.458,571.538C682.404,571.425 685.182,571.119 686.505,572.72C689.787,576.694 688.264,586.947 685.078,590.369C677.943,590.731 676.673,586.508 676.946,579.684C677.089,576.098 677.615,573.942 680.458,571.538Z" style="fill:rgb(0,225,92);fill-rule:nonzero;"/>
                </g>
                <g transform="matrix(1,0,0,1,-1026.17,-116.414)">
                    <path d="M645.669,537.408C654.108,537.556 653.452,552.519 648.522,557.197C646.57,556.964 644.498,556.857 643.42,555.087C639.613,548.836 639.955,541.87 645.669,537.408Z" style="fill:rgb(0,225,92);fill-rule:nonzero;"/>
                </g>
                <g transform="matrix(1,0,0,1,-1026.17,-116.414)">
                    <path d="M721.386,603.46C722.62,603.398 723.321,603.448 724.539,603.506C729.262,606.121 727.71,614.689 726.754,618.985C726.28,621.115 725.511,621.622 723.719,622.641C717.684,622.45 716.763,618.532 717.034,612.905C717.232,608.794 718.16,606.102 721.386,603.46Z" style="fill:rgb(0,225,92);fill-rule:nonzero;"/>
                </g>
                <g transform="matrix(1,0,0,1,-1026.17,-116.414)">
                    <path d="M719.971,504.328C725.721,505.243 726.208,510.266 725.781,515.39C725.402,519.928 724.939,522.278 721.324,525.188C714.294,523.817 715.645,515.467 716.332,509.853C716.655,507.221 717.788,505.779 719.971,504.328Z" style="fill:rgb(0,225,92);fill-rule:nonzero;"/>
                </g>
                <g transform="matrix(1,0,0,1,-1026.17,-116.414)">
                    <path d="M646.095,505.423C655.306,505.704 654.572,518.483 648.954,523.572C641.024,525.019 641.734,514.198 642.689,509.374C643.164,506.977 644.166,506.619 646.095,505.423Z" style="fill:rgb(0,225,92);fill-rule:nonzero;"/>
                </g>
                <g transform="matrix(1,0,0,1,-1026.17,-116.414)">
                    <path d="M645.426,571.031C647.518,571.025 649.904,570.967 651.011,573.091C653.612,578.081 653.026,585.439 648.107,588.633C638.773,587.737 639.056,574.177 645.426,571.031Z" style="fill:rgb(0,225,92);fill-rule:nonzero;"/>
                </g>
                <g transform="matrix(1,0,0,1,-1026.17,-116.414)">
                    <path d="M681.532,505.46C688.069,505.415 688.224,511.034 687.563,516.35C687.099,520.085 686.668,522.508 683.513,524.861C676.167,523.552 675.44,509.789 681.532,505.46Z" style="fill:rgb(0,225,92);fill-rule:nonzero;"/>
                </g>
                <g transform="matrix(1,0,0,1,-1026.17,-116.414)">
                    <path d="M681.8,536.824C688.089,538.783 688.597,553.471 683.017,557.283C676.305,554.545 676.162,546.638 677.891,540.428C678.483,538.302 679.909,537.729 681.8,536.824Z" style="fill:rgb(0,225,92);fill-rule:nonzero;"/>
                </g>
                <g transform="matrix(1,0,0,1,-1026.17,-116.414)">
                    <path d="M644.923,603.455C650.848,604.089 651.298,608.04 651.256,613.543C651.229,617.128 650.576,619.383 647.857,621.764C639.106,620.946 639.22,607.249 644.923,603.455Z" style="fill:rgb(0,225,92);fill-rule:nonzero;"/>
                </g>
                <g transform="matrix(1,0,0,1,-1026.17,-116.414)">
                    <path d="M719.41,537.346C720.809,537.399 722.881,537.408 723.658,538.572C726.722,543.163 724.425,552.696 721.135,556.228C712.242,555.281 715.26,541.641 719.41,537.346Z" style="fill:rgb(0,225,92);fill-rule:nonzero;"/>
                </g>
            </g>
        </g>
    </g>
</svg>
