<?xml version="1.0" encoding="UTF-8" standalone="no"?>
<!DOCTYPE svg PUBLIC "-//W3C//DTD SVG 1.1//EN" "http://www.w3.org/Graphics/SVG/1.1/DTD/svg11.dtd">
<svg width="100%" height="100%" viewBox="0 0 229 200" version="1.1" xmlns="http://www.w3.org/2000/svg" xmlns:xlink="http://www.w3.org/1999/xlink" xml:space="preserve" xmlns:serif="http://www.serif.com/" style="fill-rule:evenodd;clip-rule:evenodd;stroke-linejoin:round;stroke-miterlimit:2;">
    <g transform="matrix(1,0,0,1,-373.093,-50)">
        <g transform="matrix(1.52784,0,0,1.34967,-1488.3,-395.299)">
            <g transform="matrix(1.15119,0,0,1.15119,-195.498,-61.0862)">
                <g transform="matrix(0.454314,0,0,0.514286,958.924,282.886)">
                    <path d="M624.36,214.375C629.715,214.237 630.859,216.199 631.067,221.398C632.511,257.492 634.562,294.075 632.308,330.151C631.921,336.331 631.535,342.383 631.613,348.438C645.284,346.993 659.527,348.711 673.212,348.586C684.961,348.807 697.503,345.762 709.146,346.117C730.506,346.769 752.19,348.645 773.57,348.797C794.402,348.946 814.413,346.71 835.341,347.613C834.269,338.585 835.175,328.731 835.386,319.585L835.978,283.318C836.376,264.683 835.641,246.027 836.693,227.409C836.85,224.63 837.281,221.412 838.629,218.953C839.415,217.521 840.033,217.107 841.527,216.63C843.457,216.917 843.384,216.995 844.822,218.193C846.01,220.355 846.129,230.553 846.287,233.738C846.475,262.552 847.887,290.657 845.975,319.531C845.263,330.3 847.513,342.383 846.286,353.29C845.888,356.83 846.176,357.108 843.486,359.291C839.548,360.187 832.924,359.573 828.753,359.316C809.124,358.106 789.79,360.629 770.131,360.462C752.067,360.307 734.083,358.279 716.094,357.937C698.599,357.605 680.562,361.678 662.918,360.462C656.437,360.094 650.123,359.489 643.621,359.262C637.539,359.05 630.237,360.693 624.371,359.256C621.29,358.501 620.216,349.526 620.202,346.576C620.128,330.491 622.227,313.956 621.994,297.899C621.622,272.265 620.074,246.769 621.72,221.106C621.913,218.098 622.33,216.58 624.36,214.375Z" style="fill:rgb(0,225,92);fill-rule:nonzero;"/>
                </g>
                <g transform="matrix(0.454314,0,0,0.514286,958.924,282.886)">
                    <path d="M733.648,110.541C734.078,110.505 736.67,110.332 736.825,110.424C748.244,117.211 760.055,128.708 770.098,136.659C778.104,142.996 786.034,147.051 793.665,153.07C803.405,160.122 811.826,169.422 821.185,176.79C832.363,185.144 843.381,192.881 854.224,201.803C861.52,207.807 871.587,213.432 877.617,220.641C878.343,221.509 878.303,222.923 878.025,223.975C877.004,225.421 876.071,226.201 874.264,226.463C867.589,227.43 820.283,190.493 813.288,184.834C804.965,178.1 797.241,170.672 788.832,164.011C780.235,157.199 770.839,151.461 762.162,144.746C753.657,138.164 746.112,130.88 737.235,124.669C735.958,123.866 735.785,123.508 734.285,124.174C731.836,125.261 729.023,128.366 726.742,129.977C720.289,134.533 713.618,138.778 707.28,143.495C699.363,149.387 691.826,155.761 684.023,161.798C676.317,167.76 667.835,172.675 659.959,178.413C650.188,185.531 603.679,223.482 596.706,224.288C595.491,224.428 594.294,224.114 593.442,223.191C592.416,222.077 592.574,221.254 592.544,219.838C595.547,214.226 625.995,193.095 632.386,187.061C647.32,172.96 664.43,161.384 681.117,149.745C694.58,140.355 706.679,128.598 720.854,119.896C725.21,117.222 729.145,113.386 733.648,110.541Z" style="fill:rgb(0,225,92);fill-rule:nonzero;"/>
                </g>
                <g transform="matrix(0.454314,0,0,0.514286,958.924,282.886)">
                    <path d="M727.783,208.68C748.233,206.34 775.245,213.75 792.442,224.826C797.114,228.356 810.472,237.591 811.451,243.497C812.317,248.719 805.996,250.348 801.125,247.296C795.788,243.952 792.334,240.036 787.357,236.289C772.062,224.774 755.585,221.287 736.754,220.799C712.598,220.563 693.691,226.39 675.045,242.618C672.797,244.575 667.518,252.278 664.951,252.641C658.345,253.576 653.555,247.616 658.816,241.882C662.876,237.186 666.485,235.167 670.606,231.665C688.123,216.779 705.588,211.724 727.783,208.68Z" style="fill:rgb(0,225,92);fill-rule:nonzero;"/>
                </g>
                <g transform="matrix(0.454314,0,0,0.514286,958.924,282.886)">
                    <path d="M730.506,242.206C748.597,240.599 767.665,245.934 780.894,258.656C783.099,260.778 785.889,262.298 785.924,265.712C785.96,269.317 783.195,273.03 779.222,271.705C776.357,270.779 774.543,268.023 772.131,266.175C766.907,262.174 761.392,258.914 755.143,256.823C749.216,254.84 743.559,254.2 737.402,253.64C723.147,253.303 711.618,256.463 699.984,264.839C696.522,267.331 692.325,270.715 688.474,272.322C687.387,272.734 685.493,273.094 684.524,272.234C681.61,269.646 682.198,266.098 684.415,263.404C687.251,259.958 690.438,258.335 693.698,255.795C705.824,246.344 715.377,243.508 730.506,242.206Z" style="fill:rgb(0,225,92);fill-rule:nonzero;"/>
                </g>
                <g transform="matrix(0.454314,0,0,0.514286,958.924,282.886)">
                    <path d="M733.829,272.194C742.566,271.127 759.73,275.225 763.68,285.329C764.095,286.389 763.123,291.144 761.889,291.653C753.632,295.055 750.044,285.61 739.975,284.509L739.399,284.451C733.788,284.448 728.086,284.87 722.923,287.449C719.623,289.091 716.598,292.168 712.897,292.8C706.846,293.795 706.022,285.753 709.207,282.484C715.304,276.228 725.43,273.035 733.829,272.194Z" style="fill:rgb(0,225,92);fill-rule:nonzero;"/>
                </g>
                <g transform="matrix(0.454314,0,0,0.514286,958.924,282.886)">
                    <path d="M733.591,302.969C735.668,302.138 738.032,302.491 739.775,303.894C741.518,305.296 742.369,307.53 742.001,309.737C741.633,311.943 740.103,313.78 738,314.542C734.822,315.692 731.308,314.081 730.105,310.923C728.902,307.765 730.453,304.225 733.591,302.969Z" style="fill:rgb(0,225,92);fill-rule:nonzero;"/>
                </g>
            </g>
        </g>
    </g>
</svg>
