<?xml version="1.0" encoding="UTF-8" standalone="no"?>
<!DOCTYPE svg PUBLIC "-//W3C//DTD SVG 1.1//EN" "http://www.w3.org/Graphics/SVG/1.1/DTD/svg11.dtd">
<svg width="100%" height="100%" viewBox="0 0 280 200" version="1.1" xmlns="http://www.w3.org/2000/svg" xmlns:xlink="http://www.w3.org/1999/xlink" xml:space="preserve" xmlns:serif="http://www.serif.com/" style="fill-rule:evenodd;clip-rule:evenodd;stroke-linejoin:round;stroke-miterlimit:2;">
    <g transform="matrix(1,0,0,1,-355.571,-722.887)">
        <g transform="matrix(1.52784,0,0,1.34967,-1479.96,277.588)">
            <g transform="matrix(0.643759,0,0,0.728739,1482.71,-105.028)">
                <g transform="matrix(1,0,0,1,-1026.17,-116.414)">
                    <path d="M645.282,733.717C652.664,733.297 660.745,734.155 668.128,735.317C674.73,736.357 676.333,744.927 669.612,746.359C666.682,746.983 660.165,746.317 656.941,745.975C644.92,744.699 636.005,746.484 624.92,750.829C626.208,762.199 624.107,776.034 624.257,787.706C624.601,814.451 624.785,841.631 624.133,868.368C670.487,867.872 683.815,873.814 724.794,894.296C725.389,888.939 725.948,870.015 727.739,867.502C740.587,858.794 736.968,891.945 736.901,897.558C772.006,874.629 797.011,869.061 838.537,871.599C837.352,839.182 840.274,806.792 838.539,774.302C838.137,766.773 839.034,758.428 838.864,750.649C829.336,746.839 816.78,746.861 806.634,747.156C801.35,747.31 787.991,749.594 789.177,740.87C789.795,739.926 790.307,739.195 791.279,738.589C798.691,733.964 830.831,736.808 839.15,739.09C844.063,740.438 846.938,741.741 849.487,746.249C848.658,785.13 850.745,825.015 849.74,864.074C849.562,870.977 852.16,883.87 842.113,883.401C814.862,882.128 788.291,882.094 763.247,894.729C792.877,891.424 830.821,890.865 859.567,898.947C859.064,869.152 859.859,839.35 861.948,809.624C862.502,802.396 859.849,770.24 863.569,766.523C864.961,765.131 866.122,765.003 867.963,765.012C869.158,765.501 869.94,765.884 870.72,766.991C876.041,774.542 872.976,815.593 872.689,825.636C872.455,833.838 872.56,842.048 872.32,850.249C872.095,857.903 871.511,865.548 871.427,873.205C871.318,883.079 873.513,899.966 871.552,908.772C871.237,910.211 870.317,911.444 869.027,912.155C865.065,914.334 858.466,911.121 854.178,909.999C825.364,902.337 796.652,902.865 767.3,906.68C752.668,908.581 745.148,909.43 732.196,916.62C696.002,902.765 648.775,900.508 610.742,907.659C606.02,908.547 590.27,916.919 589.526,907.224C588.693,896.374 589.575,884.542 589.569,873.544L589.953,806.719C590.029,797.379 589.414,788.076 589.844,778.733C590.004,775.253 589.704,767.178 591.937,764.584C592.686,763.714 594.054,763.188 595.168,763.068C596.458,762.93 597.263,763.347 598.151,764.246C603.813,769.978 600.512,829.384 600.577,842.188C600.616,849.962 601.421,857.695 601.614,865.46C601.882,876.227 601.505,887.121 601.44,897.897C630.173,890.112 675.235,891.096 704.32,897.01C682.214,884.055 656.458,877.685 631.099,880.11C615.746,881.148 610.993,884.398 612.238,866.259C614.562,832.376 612.738,798.576 614.175,764.674C614.354,760.453 612.219,743.967 614.55,741.947C621.745,735.713 636.051,734.178 645.282,733.717Z" style="fill:rgb(0,225,92);fill-rule:nonzero;"/>
                </g>
                <g transform="matrix(1,0,0,1,-1026.17,-116.414)">
                    <path d="M724.76,713.584C727.875,713.295 731.005,713.21 734.131,713.33C758.622,714.498 777.09,734.334 775.523,759.048C774.778,770.808 769.268,778.135 763.946,788.288C761.489,792.973 758.163,806.114 750.625,798.563C749.099,795.974 750.893,790.913 751.792,788.699C755.839,778.735 762.9,771.306 764.285,760.251C766.825,739.99 755.269,730.013 737.317,724.486L736.6,724.325C728.202,722.493 721.183,724.855 714.17,729.41C708.144,733.325 703.398,738.423 700.661,745.129C690.839,769.197 714.931,789.08 711.829,799.587C711.404,801.028 710.847,801.437 709.617,802.209C705.666,802.593 703.099,800.913 700.976,797.769C678.727,764.827 681.599,722.946 724.76,713.584Z" style="fill:rgb(0,225,92);fill-rule:nonzero;"/>
                </g>
                <g transform="matrix(1,0,0,1,-1026.17,-116.414)">
                    <path d="M723.871,808.73C730.67,808.471 745.235,807.672 751.678,810.058C756.635,811.894 753.606,817.964 748.124,818.416C745.166,818.66 740.923,819.158 737.62,819.418C732.411,819.604 700.51,823.436 708.193,811.042C709.69,808.627 720.864,808.801 723.871,808.73Z" style="fill:rgb(0,225,92);fill-rule:nonzero;"/>
                </g>
                <g transform="matrix(1,0,0,1,-1026.17,-116.414)">
                    <path d="M735.466,824.27C740.063,824.1 747.176,823.159 750.804,825.903C757.712,836.732 728.593,834.455 724.643,834.423C719.154,834.15 710.924,835.208 709.373,828.529C710.2,825.255 713.369,824.7 716.41,824.58C722.708,824.33 729.171,824.339 735.466,824.27Z" style="fill:rgb(0,225,92);fill-rule:nonzero;"/>
                </g>
                <g transform="matrix(1,0,0,1,-1026.17,-116.414)">
                    <path d="M732.273,840.202C735.88,839.6 745.55,840.12 741.548,847.008C740.176,849.37 735.013,849.343 732.302,849.534C728.379,849.678 721.644,850.126 719.855,845.616C720.181,840.501 728.725,840.438 732.273,840.202Z" style="fill:rgb(0,225,92);fill-rule:nonzero;"/>
                </g>
            </g>
        </g>
    </g>
</svg>
