<?xml version="1.0" encoding="UTF-8" standalone="no"?>
<!DOCTYPE svg PUBLIC "-//W3C//DTD SVG 1.1//EN" "http://www.w3.org/Graphics/SVG/1.1/DTD/svg11.dtd">
<svg width="100%" height="100%" viewBox="0 0 271 200" version="1.1" xmlns="http://www.w3.org/2000/svg" xmlns:xlink="http://www.w3.org/1999/xlink" xml:space="preserve" xmlns:serif="http://www.serif.com/" style="fill-rule:evenodd;clip-rule:evenodd;stroke-linejoin:round;stroke-miterlimit:2;">
    <g transform="matrix(1,0,0,1,-14.6281,-55.9116)">
        <g transform="matrix(1.52784,0,0,1.34967,-1825.52,-389.387)">
            <g transform="matrix(0.513864,0,0,0.581697,1656.68,333.666)">
                <g transform="matrix(1,0,0,1,-1026.17,-116.414)">
                    <path d="M211.325,129.711C216.418,129.409 232.958,129.825 238.015,130.093C247.644,130.603 288.739,129.15 294.595,131.051C300.896,141.217 303.042,185.476 306.289,199.438C307.268,203.648 310.598,217.45 308.075,220.661C303.417,222.511 253.233,221.412 243.83,221.639C237.353,221.957 230.993,222.015 224.446,221.936C199.511,221.638 174.238,222.817 149.384,221.205C147.79,221.101 146.868,219.568 146.117,218.351C145.204,210.878 151.833,194.854 153.746,186.512C157.233,171.305 160.41,145.087 166.311,131.557C169.13,129.777 177.185,129.979 180.571,130.232C191.025,131.014 200.887,130.505 211.325,129.711ZM290.288,176.943C286.917,180.508 285.454,180.872 280.443,180.746C250.706,179.999 221.331,183.933 191.583,181.68C182.675,181.005 175.758,181.475 166.822,179.406C165.821,183.441 159.056,207.515 159.454,209.92C160.645,210.747 160.856,210.542 162.375,210.502L252.135,210.215C266.018,210.227 282.281,210.966 296.05,210.29C295.384,203.93 293.873,198.251 292.632,191.992C291.802,187.803 291.364,180.656 290.288,176.943ZM173.174,140.43C172.87,151.763 169.605,160.503 168.25,171.539C175.773,171.121 183.486,170.533 190.994,170.455C197.446,170.389 204.128,171.041 210.589,170.865C229.754,170.344 249.122,169.159 268.283,169.818C272.343,169.958 280.97,170.023 284.775,170.805C286.557,171.513 288.186,172.071 289.819,173.088C288.245,163.132 286.723,151.615 284.238,141.971C257.443,140.357 226.692,141.919 199.623,141.949C190.4,141.959 181.59,140.497 173.174,140.43Z" style="fill:currentColor;"/>
                </g>
                <g transform="matrix(1,0,0,1,-1026.17,-116.414)">
                    <path d="M203.808,184.005C204.188,184.003 204.568,184.009 204.948,184.023C211.714,184.311 210.44,194.839 209.652,199.495C209.001,203.333 208.464,205.995 205.173,208.292L204.694,208.288C198.687,208.298 198.389,203.687 198.612,198.736C198.836,193.775 199.355,186.757 203.808,184.005Z" style="fill:currentColor;fill-rule:nonzero;"/>
                </g>
                <g transform="matrix(1,0,0,1,-1026.17,-116.414)">
                    <path d="M250.569,186.439C260.625,186.808 259.071,203.464 254.96,207.598C253.64,207.8 251.203,208.356 250.154,207.23C246.923,203.766 247.414,197.872 247.802,193.451C248.083,190.248 248.307,188.832 250.569,186.439Z" style="fill:currentColor;fill-rule:nonzero;"/>
                </g>
                <g transform="matrix(1,0,0,1,-1026.17,-116.414)">
                    <path d="M250.2,144.386C262.246,144.1 259.697,162.415 255.321,168.212C254.056,168.581 252.121,169.233 251.143,168.284C246.975,164.238 246.802,148.242 250.2,144.386Z" style="fill:currentColor;fill-rule:nonzero;"/>
                </g>
                <g transform="matrix(1,0,0,1,-1026.17,-116.414)">
                    <path d="M207.427,145.032C217.191,144.008 214.879,154.571 213.845,160.984C213.397,163.759 212.494,164.606 210.382,166.398C209.251,166.973 208.674,167.013 207.433,167.272C201.927,165.666 204.648,154.84 204.762,150.419C204.823,148.078 205.744,146.622 207.427,145.032Z" style="fill:currentColor;fill-rule:nonzero;"/>
                </g>
                <g transform="matrix(1,0,0,1,-1026.17,-116.414)">
                    <path d="M226.013,233.463C236.044,233.453 231.828,240.269 232.553,246.999C236.382,282.508 257.736,304.178 289.73,317.441C306.459,324.376 314.037,329.351 333.084,328.699C337.65,328.558 342.197,328.054 346.683,327.191C350.391,326.489 357.395,324.364 360.928,324.499C366.879,324.727 369.786,330.762 362.932,334.501C347.948,339.079 329.218,340.845 313.734,338.51C306.795,337.269 300.301,334.447 293.836,331.774C272.329,322.883 247.725,309.98 235.606,289.239C228.844,277.666 223.358,264.385 222.469,250.919C222.092,245.201 222.066,237.914 226.013,233.463Z" style="fill:currentColor;fill-rule:nonzero;"/>
                </g>
                <g transform="matrix(1,0,0,1,-1026.17,-116.414)">
                    <path d="M412.373,220.897C412.708,220.892 413.043,220.881 413.378,220.883C427.069,220.951 461.76,251.157 473.321,259.834C477.791,263.187 486.253,267.517 489.578,271.312C490.552,272.423 491.131,273.89 490.78,275.378C490.418,276.915 489.362,278.168 487.98,278.895C486.519,279.664 485.045,279.793 483.446,279.453C476.917,278.064 470.326,274.704 463.987,272.503C456.182,269.793 448.167,267.756 440.275,265.32C429.232,262.082 409.396,253.954 400.852,244.829C398.621,240.882 403.393,236.573 406.761,238.394C420.193,245.654 432.939,250.287 447.235,255.324C435.913,244.503 423.393,238.74 410.856,230.1C408.201,228.271 409.795,223.158 412.373,220.897Z" style="fill:currentColor;fill-rule:nonzero;"/>
                </g>
                <g transform="matrix(1,0,0,1,-1026.17,-116.414)">
                    <path d="M385.02,109.992C393.093,110.12 392.644,116.075 393.199,122.896C394.839,143.031 398.37,162.997 399.434,183.148C399.666,187.544 399.454,193.042 397.759,197.115C395.909,201.801 389.147,201.154 389.08,195.76C388.914,182.382 387.553,170.129 385.753,156.913L385.38,156.802L384.835,158.609C382.511,172.636 380.212,184.748 380.964,199.066C381.095,201.546 377.73,204.194 375.149,203.704C371.132,202.944 371.314,198.465 370.837,195.24C369.096,178.013 374.159,161.588 376.974,144.806C378.572,135.33 380.075,125.827 381.481,116.319C382.138,111.892 381.779,112.356 385.02,109.992Z" style="fill:currentColor;fill-rule:nonzero;"/>
                </g>
                <g transform="matrix(1,0,0,1,-1026.17,-116.414)">
                    <path d="M354.662,222.086C357.143,222.112 363.17,224.264 360.736,226.763C353.879,233.802 344.585,241.069 336.522,246.812C344.522,244.531 359.565,238.436 368.055,238.752C371.444,239.182 371.069,244.015 369.582,245.574C360.106,255.505 336.336,260.369 323.658,263.869C317.343,265.943 294.019,273.662 288.194,273.386C286.935,272.712 286.414,272.501 285.867,271.07C284.308,266.986 285.423,264.973 288.849,262.905C309.264,250.582 329.248,237.632 349.188,224.567C350.854,223.475 352.746,222.612 354.662,222.086Z" style="fill:currentColor;fill-rule:nonzero;"/>
                </g>
                <g transform="matrix(1,0,0,1,-1026.17,-116.414)">
                    <path d="M384.137,243.394C390.715,243.836 390.919,248.186 390.853,253.459C390.678,267.403 389.213,281.221 389.497,295.191C389.898,314.931 391.135,334.667 389.967,354.411C389.689,359.088 389.08,361.66 385.652,364.625C384.826,364.697 383.944,364.791 383.117,364.696C381.831,364.549 380.518,363.856 379.82,362.753C378.28,360.32 378.037,290.444 378.199,282.123C378.409,271.403 378.203,259.395 380.102,248.823C380.616,245.964 381.794,244.985 384.137,243.394Z" style="fill:currentColor;fill-rule:nonzero;"/>
                </g>
                <g transform="matrix(1,0,0,1,-1026.17,-116.414)">
                    <path d="M383.457,208.747C390.608,207.372 397.654,211.578 399.837,218.525C401.071,222.449 400.559,226.715 398.432,230.236C396.304,233.757 392.766,236.194 388.718,236.927C380.958,238.333 373.521,233.206 372.073,225.454C370.626,217.702 375.713,210.236 383.457,208.747Z" style="fill:currentColor;fill-rule:nonzero;"/>
                </g>
            </g>
        </g>
    </g>
</svg>
