<?xml version="1.0" encoding="UTF-8" standalone="no"?>
<!DOCTYPE svg PUBLIC "-//W3C//DTD SVG 1.1//EN" "http://www.w3.org/Graphics/SVG/1.1/DTD/svg11.dtd">
<svg width="100%" height="100%" viewBox="0 0 500 500" version="1.1" xmlns="http://www.w3.org/2000/svg" xmlns:xlink="http://www.w3.org/1999/xlink" xml:space="preserve" xmlns:serif="http://www.serif.com/" style="fill-rule:evenodd;clip-rule:evenodd;stroke-linejoin:round;stroke-miterlimit:2;">
    <g transform="matrix(1,0,0,1,-17318,-10086)">
        <g id="Artboard2" transform="matrix(1.18493,0,0,1.18493,-3202.97,-1865.9)">
            <rect x="17318.3" y="10086.6" width="421.965" height="421.965" style="fill:rgb(41,41,41);"/>
            <g transform="matrix(0.621122,0,0,0.621122,16410.8,9039.13)">
                <g transform="matrix(6.87198,0,0,6.87198,-6610.16,-5119.23)">
                    <path d="M1220.98,1043.07L1217.26,1056.52L1203.31,1056.52L1196.31,1023.02L1206.81,1023.02L1209.61,1040.07L1210.51,1047.62L1211.16,1047.62L1212.51,1040.07L1220.98,1043.07Z" style="fill:rgb(6,225,91);fill-rule:nonzero;"/>
                </g>
                <g transform="matrix(1,0,0,1,-3132.39,-18.04)">
                    <path d="M4870.08,1987.44C4870.66,1979.52 4872.72,1972 4875.96,1965.16C4886.09,1943.78 4907.88,1928.98 4933.1,1928.98C4961.33,1928.98 4985.26,1947.53 4993.36,1973.09C4994.24,1975.89 4994.94,1978.76 4995.43,1981.71C4996,1985.11 4996.29,1988.61 4996.29,1992.17C4996.29,2021.58 4976.16,2046.32 4948.94,2053.36C4943.87,2054.67 4938.57,2055.36 4933.1,2055.36C4927.31,2055.36 4921.71,2054.58 4916.38,2053.12C4889.6,2045.79 4869.9,2021.26 4869.9,1992.17C4869.9,1990.58 4869.96,1989 4870.08,1987.44Z" style="fill:rgb(6,225,91);"/>
                </g>
                <g transform="matrix(-6.87198,0,0,6.87198,10211.6,-5119.23)">
                    <path d="M1220.98,1043.07L1217.26,1056.52L1203.31,1056.52L1196.31,1023.02L1206.81,1023.02L1209.61,1040.07L1210.51,1047.62L1211.16,1047.62L1212.51,1040.07L1220.98,1043.07Z" style="fill:rgb(6,225,91);fill-rule:nonzero;"/>
                </g>
            </g>
        </g>
    </g>
</svg>
