<?xml version="1.0" encoding="UTF-8" standalone="no"?>
<!DOCTYPE svg PUBLIC "-//W3C//DTD SVG 1.1//EN" "http://www.w3.org/Graphics/SVG/1.1/DTD/svg11.dtd">
<svg fill="currentColor" width="100%" height="100%" viewBox="0 0 1836 175" version="1.1" xmlns="http://www.w3.org/2000/svg" xmlns:xlink="http://www.w3.org/1999/xlink" xml:space="preserve" xmlns:serif="http://www.serif.com/" style="fill-rule:evenodd;clip-rule:evenodd;stroke-linejoin:round;stroke-miterlimit:2;">
    <g transform="matrix(1,0,0,1,-14706.8,-11177)">
        <g transform="matrix(0.906433,0,0,0.5234,14292.4,10086.6)">
            <g transform="matrix(0.811959,0,0,1.40617,282.061,183.484)">
                <g transform="matrix(6.87198,0,0,6.87198,-6489.1,-5675.66)">
                    <path d="M985.062,1056.52L975.662,1056.52L975.662,1023.02L985.062,1023.02L985.062,1056.52ZM1005.41,1056.52L978.212,1056.52L978.212,1048.07L1005.41,1048.07L1005.41,1056.52ZM1004.66,1043.87L978.212,1043.87L978.212,1035.47L1004.66,1035.47L1004.66,1043.87ZM1005.41,1031.47L978.212,1031.47L978.212,1023.02L1005.41,1023.02L1005.41,1031.47Z" style="fill-rule: nonzero;"/>
                    <path d="M1017.46,1056.52L1008.06,1056.52L1008.06,1023.02L1018.06,1023.02L1027.36,1035.57L1032.26,1043.27L1032.91,1043.27L1032.46,1035.97L1032.46,1023.02L1041.86,1023.02L1041.86,1056.52L1031.86,1056.52L1021.96,1043.62L1017.71,1037.02L1017.06,1037.02L1017.46,1043.42L1017.46,1056.52Z" style="fill-rule:nonzero;"/>
                    <path d="M1054.26,1056.52L1044.86,1056.52L1044.86,1023.02L1054.26,1023.02L1054.26,1056.52ZM1074.61,1056.52L1047.41,1056.52L1047.41,1048.07L1074.61,1048.07L1074.61,1056.52ZM1073.86,1043.87L1047.41,1043.87L1047.41,1035.47L1073.86,1035.47L1073.86,1043.87ZM1074.61,1031.47L1047.41,1031.47L1047.41,1023.02L1074.61,1023.02L1074.61,1031.47Z" style="fill-rule:nonzero;"/>
                    <path d="M1086.66,1056.52L1077.26,1056.52L1077.26,1023.02L1096.81,1023.02C1099.78,1023.02 1102.26,1023.42 1104.26,1024.22C1106.26,1025.02 1107.77,1026.18 1108.79,1027.69C1109.8,1029.21 1110.31,1031.07 1110.31,1033.27C1110.31,1035.04 1110,1036.56 1109.39,1037.84C1108.77,1039.13 1107.8,1040.16 1106.46,1040.94C1105.13,1041.73 1103.39,1042.25 1101.26,1042.52C1101.26,1042.52 1104.24,1044.09 1104.99,1044.94C1105.74,1045.79 1106.43,1046.85 1107.06,1048.12L1111.21,1056.52L1100.36,1056.52L1096.36,1048.32C1095.96,1047.49 1095.55,1046.84 1095.11,1046.37C1094.68,1045.9 1094.11,1045.58 1093.41,1045.39C1092.71,1045.21 1091.75,1045.12 1090.51,1045.12L1086.66,1045.12L1086.66,1056.52ZM1086.66,1031.47L1086.66,1038.12L1096.71,1038.12C1098.08,1038.12 1099.05,1037.92 1099.61,1037.52C1100.18,1037.12 1100.46,1036.2 1100.46,1034.77C1100.46,1033.43 1100.18,1032.55 1099.61,1032.12C1099.05,1031.68 1098.08,1031.47 1096.71,1031.47L1086.66,1031.47Z" style="fill-rule:nonzero;"/>
                    <path d="M1128.91,1057.02C1125.41,1057.02 1122.41,1056.31 1119.91,1054.89C1117.41,1053.48 1115.5,1051.48 1114.19,1048.89C1112.87,1046.31 1112.21,1043.27 1112.21,1039.77C1112.21,1036.27 1112.98,1033.23 1114.51,1030.64C1116.05,1028.06 1118.26,1026.06 1121.16,1024.64C1124.06,1023.23 1127.55,1022.52 1131.61,1022.52C1135.41,1022.52 1138.66,1023.05 1141.36,1024.12C1144.06,1025.18 1146.13,1026.71 1147.56,1028.69C1149,1030.68 1149.71,1033.05 1149.71,1035.82L1149.71,1036.17L1139.21,1036.17L1139.21,1035.82C1139.21,1034.25 1138.64,1033.14 1137.51,1032.49C1136.38,1031.84 1134.33,1031.52 1131.36,1031.52C1128.96,1031.52 1127.1,1031.74 1125.79,1032.19C1124.47,1032.64 1123.55,1033.46 1123.01,1034.64C1122.48,1035.83 1122.21,1037.54 1122.21,1039.77C1122.21,1041.97 1122.46,1043.67 1122.96,1044.87C1123.46,1046.07 1124.34,1046.89 1125.59,1047.34C1126.84,1047.79 1128.6,1048.02 1130.86,1048.02C1133.56,1048.02 1135.6,1047.93 1136.96,1047.74C1138.33,1047.56 1139.24,1047.16 1139.69,1046.54C1140.14,1045.93 1140.36,1044.97 1140.36,1043.67L1140.36,1041.82L1149.76,1041.62L1149.76,1042.32L1141.61,1049.37C1141.61,1049.37 1139.65,1051.9 1138.84,1053.07C1138.02,1054.24 1136.82,1055.18 1135.24,1055.92C1133.65,1056.65 1131.55,1057.02 1128.91,1057.02ZM1149.76,1056.52L1141.01,1056.52C1141.01,1056.52 1141.12,1048.74 1141.01,1046.97C1140.99,1046.56 1140.36,1045.92 1140.36,1045.92L1140.36,1038.67L1149.76,1038.67L1149.76,1056.52ZM1149.76,1045.12L1129.96,1045.12L1129.96,1038.22L1149.76,1038.22L1149.76,1045.12Z" style="fill-rule:nonzero;"/>
                    <rect x="1152.56" y="1023.02" width="9.4" height="33.5" style="fill-rule:nonzero;"/>
                    <path d="M1174.36,1056.52L1164.96,1056.52L1164.96,1023.02L1174.36,1023.02L1174.36,1056.52ZM1194.71,1056.52L1167.51,1056.52L1167.51,1048.07L1194.71,1048.07L1194.71,1056.52ZM1193.96,1043.87L1167.51,1043.87L1167.51,1035.47L1193.96,1035.47L1193.96,1043.87ZM1194.71,1031.47L1167.51,1031.47L1167.51,1023.02L1194.71,1023.02L1194.71,1031.47Z" style="fill-rule:nonzero;"/>
                    <path d="M1262.91,1056.52L1253.51,1056.52L1253.51,1023.02L1262.91,1023.02L1262.91,1056.52ZM1283.26,1056.52L1256.06,1056.52L1256.06,1048.07L1283.26,1048.07L1283.26,1056.52ZM1282.51,1043.87L1256.06,1043.87L1256.06,1035.47L1282.51,1035.47L1282.51,1043.87ZM1283.26,1031.47L1256.06,1031.47L1256.06,1023.02L1283.26,1023.02L1283.26,1031.47Z" style="fill-rule:nonzero;"/>
                    <path d="M1295.31,1056.52L1285.91,1056.52L1285.91,1023.02L1295.31,1023.02L1295.31,1056.52ZM1314.66,1056.52L1288.51,1056.52L1288.51,1048.07L1314.66,1048.07L1314.66,1056.52Z" style="fill-rule:nonzero;"/>
                    <g transform="matrix(1,0,0,1,-10.95,0)">
                        <rect x="1328.26" y="1023.02" width="9.4" height="33.5" style="fill-rule:nonzero;"/>
                    </g>
                    <g transform="matrix(1,0,0,1,-10.925,-2.27374e-13)">
                        <rect x="1316.41" y="1023.02" width="33.05" height="8.45" style="fill-rule:nonzero;"/>
                    </g>
                </g>
                <g transform="matrix(1,0,0,1,121.06,-556.43)">
                    <g transform="matrix(6.87198,0,0,6.87198,-6610.16,-5119.23)">
                        <path d="M1220.98,1043.07L1217.26,1056.52L1203.31,1056.52L1196.31,1023.02L1206.81,1023.02L1209.61,1040.07L1210.51,1047.62L1211.16,1047.62L1212.51,1040.07L1220.98,1043.07Z" style="fill:var(--color-brand);fill-rule:nonzero;"/>
                    </g>
                    <g transform="matrix(1,0,0,1,-3132.39,-18.04)">
                        <path d="M4870.08,1987.44C4870.66,1979.52 4872.72,1972 4875.96,1965.16C4886.09,1943.78 4907.88,1928.98 4933.1,1928.98C4961.33,1928.98 4985.26,1947.53 4993.36,1973.09C4994.24,1975.89 4994.94,1978.76 4995.43,1981.71C4996,1985.11 4996.29,1988.61 4996.29,1992.17C4996.29,2021.58 4976.16,2046.32 4948.94,2053.36C4943.87,2054.67 4938.57,2055.36 4933.1,2055.36C4927.31,2055.36 4921.71,2054.58 4916.38,2053.12C4889.6,2045.79 4869.9,2021.26 4869.9,1992.17C4869.9,1990.58 4869.96,1989 4870.08,1987.44Z" style="fill:var(--color-brand);"/>
                    </g>
                    <g transform="matrix(-6.87198,0,0,6.87198,10211.6,-5119.23)">
                        <path d="M1220.98,1043.07L1217.26,1056.52L1203.31,1056.52L1196.31,1023.02L1206.81,1023.02L1209.61,1040.07L1210.51,1047.62L1211.16,1047.62L1212.51,1040.07L1220.98,1043.07Z" style="fill:var(--color-brand);fill-rule:nonzero;"/>
                    </g>
                </g>
            </g>
        </g>
    </g>
</svg>
